<svg id="svg4058" xmlns="http://www.w3.org/2000/svg" viewBox="0 0 202.41 33.77"><defs><style>.cls-1{fill:#3d3d3d;}.cls-2{fill:#0080ff;}</style></defs><title>bulkgate logo</title><g id="layer1"><g id="g3390"><path id="path3392" class="cls-1" d="M21.65,15.2l-1.34,6.9h5.52a6.33,6.33,0,0,0,3.44-.71A3.69,3.69,0,0,0,30.68,19a2.54,2.54,0,0,0,.08-.64v-.51a2.23,2.23,0,0,0-.93-2A5.36,5.36,0,0,0,27,15.2ZM19.24,27.66l-1.55,8h5.78a8.18,8.18,0,0,0,4.05-.76,3.78,3.78,0,0,0,1.6-2.76,8.79,8.79,0,0,0,.13-1.47,2.53,2.53,0,0,0-1.09-2.38,6.42,6.42,0,0,0-3.22-.64ZM9.77,41.27,16,9.6h12.1a17.94,17.94,0,0,1,4,.4,9,9,0,0,1,3.05,1.24,6.07,6.07,0,0,1,2,2.2,7,7,0,0,1,.71,3.27,7.43,7.43,0,0,1-.07,1c0,.35-.09.74-.15,1.15a7.75,7.75,0,0,1-1.69,3.7,8.31,8.31,0,0,1-3.07,2.27,5.13,5.13,0,0,1,2.62,2.33,7.8,7.8,0,0,1,.85,3.72,12.72,12.72,0,0,1-.14,1.82c-.44,3.08-1.74,5.28-3.89,6.58a16.12,16.12,0,0,1-8.47,2Z" transform="translate(-9.77 -8.22)"/></g><g id="g3394"><path id="path3396" class="cls-1" d="M56.52,18H63.6L60.79,32.46a16.66,16.66,0,0,1-1.4,4.45,8.51,8.51,0,0,1-2.36,3,8.73,8.73,0,0,1-3.49,1.62,20.55,20.55,0,0,1-4.8.49c-3.15,0-5.53-.61-7.17-1.82a6.55,6.55,0,0,1-2.44-5.61q0-.61.06-1.35c.05-.49.12-.94.2-1.36L42.11,18h7.07L46.42,32.15c-.06.3-.1.59-.13.87a6.29,6.29,0,0,0,0,.64,2.4,2.4,0,0,0,.75,2,3.69,3.69,0,0,0,2.23.57,8.8,8.8,0,0,0,1.86-.17,2.79,2.79,0,0,0,1.27-.65,3.45,3.45,0,0,0,.85-1.27,9.6,9.6,0,0,0,.55-2Z" transform="translate(-9.77 -8.22)"/></g><g id="g3398"><path id="path3400" class="cls-1" d="M69.78,8.22h7.07L70.4,41.27H63.33Z" transform="translate(-9.77 -8.22)"/></g><g id="g3402"><path id="path3404" class="cls-1" d="M89.84,29,98,41.27h-8.1L83.44,31.08l-2,10.19H74.67L81.12,8.22h6.76L84.37,26.41,93.18,18h8.36Z" transform="translate(-9.77 -8.22)"/></g><g id="g3406"><path id="path3408" class="cls-2" d="M110.13,25.34a23.38,23.38,0,0,0-.54,4.5c0,1.95.51,3.33,1.52,4.14s2.68,1.2,5,1.2h1.36c.64,0,1.18,0,1.62,0l1.12-5.74h-4.59L118,23.34h10.77l-2.54,13.17a6.05,6.05,0,0,1-1.49,3.34,5.16,5.16,0,0,1-3,1.2,28.26,28.26,0,0,1-3.49.24l-3.23,0a20.07,20.07,0,0,1-6-.78,10.1,10.1,0,0,1-4-2.21,8.27,8.27,0,0,1-2.21-3.44,14.09,14.09,0,0,1-.69-4.56,27,27,0,0,1,.63-5.47,28.14,28.14,0,0,1,2.44-7.61,13.83,13.83,0,0,1,3.83-4.7,13.43,13.43,0,0,1,5.29-2.37,31.91,31.91,0,0,1,6.9-.67l4.31,0c1.4,0,2.9.05,4.5.11l-2.36,6.14-1.8-.07-1.74,0c-.58,0-1.18,0-1.82,0h-2.11a16.44,16.44,0,0,0-4,.42,6.43,6.43,0,0,0-2.82,1.51,8.27,8.27,0,0,0-2,3,24.07,24.07,0,0,0-1.31,4.78" transform="translate(-9.77 -8.22)"/></g><g id="g3410"><path id="path3412" class="cls-2" d="M181.84,23.57l-1.65,8.54a6.49,6.49,0,0,0-.18,1.51,2,2,0,0,0,.6,1.6,3.22,3.22,0,0,0,2.12.53h2.42c.49,0,.94,0,1.34,0l.82,0-2.14,5.56h-.77l-1.34,0c-.49,0-1,0-1.49,0h-1.2q-4,0-5.76-1.74a6.42,6.42,0,0,1-1.8-4.85,10.61,10.61,0,0,1,.09-1.33c0-.48.13-1,.22-1.47l3.78-19.49,7.25-.84L182.91,18H190l-2.13,5.57Z" transform="translate(-9.77 -8.22)"/></g><g id="g3414"><path id="path3416" class="cls-2" d="M202.7,22.32a4.72,4.72,0,0,0-3.42,1.13,8.54,8.54,0,0,0-1.87,4h3.87a15.42,15.42,0,0,0,1.84-.09,3.92,3.92,0,0,0,1.23-.33,2,2,0,0,0,.75-.63,3.36,3.36,0,0,0,.45-.95,3.62,3.62,0,0,0,.18-1.16,1.78,1.78,0,0,0-.67-1.47,3.94,3.94,0,0,0-2.36-.53m-6.23,10v.72a3,3,0,0,0,1,2.4,5.37,5.37,0,0,0,3.26.75c1.63,0,3.06,0,4.28,0s2.49-.09,3.82-.18l-2,5.12c-.92.09-2,.15-3.32.18s-2.66,0-4.11,0a14.7,14.7,0,0,1-4.6-.62A7.41,7.41,0,0,1,191.87,39a6.31,6.31,0,0,1-1.56-2.64,11.44,11.44,0,0,1-.46-3.32,19.5,19.5,0,0,1,.4-3.87,19.54,19.54,0,0,1,1.95-6,11.43,11.43,0,0,1,3-3.62A9.52,9.52,0,0,1,199,17.76a19.14,19.14,0,0,1,4.27-.47c3,0,5.27.57,6.74,1.69a5.78,5.78,0,0,1,2.2,4.85c0,.39-.07.78-.11,1.18s-.11.81-.2,1.22A6.7,6.7,0,0,1,208.55,31a15.89,15.89,0,0,1-7.4,1.38Z" transform="translate(-9.77 -8.22)"/></g><g id="g3418"><path id="path3420" class="cls-2" d="M150.06,17.11c6.75,4.62,11.47,10.55,13.41,24.17h7.24C170,27.7,161.85,16,150.06,9.54,138.28,16,130.17,27.7,129.41,41.28h7.25s12.83.48,21.31-12.87c0,0-8.52,4.53-13.53,2.65-4.74-1.78-2.45-5.89-2.19-6.33a28.29,28.29,0,0,1,7.81-7.62" transform="translate(-9.77 -8.22)"/></g></g></svg>