<svg xmlns="http://www.w3.org/2000/svg" width="64" height="64" viewBox="0 0 64 64">
  <rect width="64" height="64" rx="8" fill="#1565C0"/>
  <g fill="#fff">
    <path d="M14 18h10v3H17v4h6v3h-6v7h-3V18z"/>
    <path d="M26 21h-3v-3h9v3h-3v14h-3V21z"/>
    <path d="M34 18h6c3.3 0 5 2 5 4.5S43.3 27 40 27h-3v8h-3V18zm3 6h2.5c1.4 0 2.5-.7 2.5-2s-1.1-2-2.5-2H37v4z"/>
  </g>
  <g fill="none" stroke="#B3E5FC" stroke-width="1.5" stroke-linecap="round">
    <path d="M16 44h32"/>
    <path d="M22 48h20"/>
    <circle cx="20" cy="44" r="1.5" fill="#B3E5FC"/>
    <circle cx="44" cy="44" r="1.5" fill="#B3E5FC"/>
    <path d="M32 39v-3m-4 1.5l4-4 4 4" stroke-width="1.5"/>
  </g>
</svg>
