<svg id="Geis_Logo_4C_NEU" xmlns="http://www.w3.org/2000/svg" width="198.5" height="184.5" viewBox="0 0 198.5 184.5">
  <g id="Gruppe_67792" data-name="Gruppe 67792">
    <path id="Pfad_31223" data-name="Pfad 31223" d="M148.2,43.6" fill="none" stroke="#fff" stroke-miterlimit="10" stroke-width="0.202"/>
  </g>
  <g id="Gruppe_67808" data-name="Gruppe 67808">
    <g id="Gruppe_67793" data-name="Gruppe 67793">
      <path id="Pfad_31224" data-name="Pfad 31224" d="M0,170.6H0a9.759,9.759,0,0,1,10-9.9,10.51,10.51,0,0,1,7.5,2.6l-2.6,3.2a7.209,7.209,0,0,0-5-1.9,5.773,5.773,0,0,0-5.5,5.9v.1a5.673,5.673,0,0,0,5.8,6,6.9,6.9,0,0,0,3.9-1.1v-2.7H9.9v-3.6h8.3v8.3a12.1,12.1,0,0,1-8.1,3C4.1,180.4,0,176.2,0,170.6Z" fill="#ff0001"/>
    </g>
    <g id="Gruppe_67794" data-name="Gruppe 67794">
      <path id="Pfad_31225" data-name="Pfad 31225" d="M20.3,160.3h4.1v19.8H20.3Z" fill="#ff0001"/>
    </g>
    <g id="Gruppe_67795" data-name="Gruppe 67795">
      <path id="Pfad_31226" data-name="Pfad 31226" d="M26,172.9h0a7.667,7.667,0,0,1,7.9-7.6,7.5,7.5,0,0,1,7.8,7.5v.1a7.667,7.667,0,0,1-7.9,7.6A7.642,7.642,0,0,1,26,172.9Zm11.6,0h0a3.87,3.87,0,0,0-3.8-4.1,3.727,3.727,0,0,0-3.8,4v.1a3.8,3.8,0,1,0,7.6,0Z" fill="#ff0001"/>
    </g>
    <g id="Gruppe_67796" data-name="Gruppe 67796">
      <path id="Pfad_31227" data-name="Pfad 31227" d="M47,178.2v1.9H42.9V160.3H47v7.4a5.266,5.266,0,0,1,4.5-2.4c3.4,0,6.6,2.7,6.6,7.5v.1c0,4.9-3.2,7.5-6.6,7.5A6.275,6.275,0,0,1,47,178.2Zm7.1-5.4h0c0-2.5-1.6-4.1-3.6-4.1-1.9,0-3.5,1.6-3.5,4v.1c0,2.4,1.6,4,3.5,4A3.693,3.693,0,0,0,54.1,172.8Z" fill="#ff0001"/>
    </g>
    <g id="Gruppe_67797" data-name="Gruppe 67797">
      <path id="Pfad_31228" data-name="Pfad 31228" d="M59,175.9h0c0-3.2,2.4-4.7,5.9-4.7a9.688,9.688,0,0,1,3.6.6v-.2c0-1.7-1.1-2.7-3.1-2.7a10.191,10.191,0,0,0-4,.8l-1-3.1a12.9,12.9,0,0,1,5.6-1.2,6.685,6.685,0,0,1,4.9,1.6,6.3,6.3,0,0,1,1.6,4.6V180h-4v-1.6a5.624,5.624,0,0,1-4.4,1.8C61.3,180.3,59,178.7,59,175.9Zm9.5-1v-.7a6.688,6.688,0,0,0-2.6-.5c-1.8,0-2.8.7-2.8,2v.1c0,1.1.9,1.8,2.3,1.8C67.2,177.5,68.5,176.4,68.5,174.9Z" fill="#ff0001"/>
    </g>
    <g id="Gruppe_67798" data-name="Gruppe 67798">
      <path id="Pfad_31229" data-name="Pfad 31229" d="M74.6,160.3h4.1v19.8H74.6Z" fill="#ff0001"/>
    </g>
    <g id="Gruppe_67799" data-name="Gruppe 67799">
      <path id="Pfad_31230" data-name="Pfad 31230" d="M89.7,161.1h4.2v15.2h8v3.8H89.7Z" fill="#ff0001"/>
    </g>
    <g id="Gruppe_67800" data-name="Gruppe 67800">
      <path id="Pfad_31231" data-name="Pfad 31231" d="M102.4,172.9h0a7.667,7.667,0,0,1,7.9-7.6,7.5,7.5,0,0,1,7.8,7.5v.1a7.854,7.854,0,0,1-15.7,0Zm11.6,0h0a3.87,3.87,0,0,0-3.8-4.1,3.727,3.727,0,0,0-3.8,4v.1a3.805,3.805,0,1,0,7.6,0Z" fill="#ff0001"/>
    </g>
    <g id="Gruppe_67801" data-name="Gruppe 67801">
      <path id="Pfad_31232" data-name="Pfad 31232" d="M120.1,183l1.4-3.1a9.939,9.939,0,0,0,4.9,1.3c2.8,0,4.2-1.4,4.2-4v-.7a5.516,5.516,0,0,1-4.7,2.4,6.438,6.438,0,0,1-6.5-6.8V172a6.438,6.438,0,0,1,6.5-6.8,5.612,5.612,0,0,1,4.7,2.2v-1.9h4.1v11.3q0,3.9-1.8,5.7c-1.4,1.4-3.4,2-6.3,2A14.823,14.823,0,0,1,120.1,183Zm10.5-10.9h0a3.553,3.553,0,0,0-7.1,0v.1a3.337,3.337,0,0,0,3.5,3.4A3.565,3.565,0,0,0,130.6,172.1Z" fill="#ff0001"/>
    </g>
    <g id="Gruppe_67802" data-name="Gruppe 67802">
      <path id="Pfad_31233" data-name="Pfad 31233" d="M137.3,160h4.3v3.7h-4.3Zm.1,5.5h4.1V180h-4.1Z" fill="#ff0001"/>
    </g>
    <g id="Gruppe_67803" data-name="Gruppe 67803">
      <path id="Pfad_31234" data-name="Pfad 31234" d="M143.2,178.1l1.8-2.7a8.449,8.449,0,0,0,4.6,1.7c1.2,0,1.7-.4,1.7-1.1h0c0-.9-1.4-1.2-3-1.7-2-.6-4.3-1.5-4.3-4.4v-.1c0-3,2.4-4.6,5.3-4.6a9.59,9.59,0,0,1,5.4,1.7l-1.6,2.9a9.256,9.256,0,0,0-3.9-1.4c-1,0-1.5.4-1.5,1v.1c0,.8,1.4,1.2,3,1.7,2,.7,4.4,1.7,4.4,4.3v.1c0,3.2-2.4,4.7-5.6,4.7A9.7,9.7,0,0,1,143.2,178.1Z" fill="#ff0001"/>
    </g>
    <g id="Gruppe_67804" data-name="Gruppe 67804">
      <path id="Pfad_31235" data-name="Pfad 31235" d="M157.6,176v-6.9h-1.7v-3.5h1.7v-3.7h4.1v3.7h3.4v3.5h-3.4v6.2c0,1,.4,1.4,1.3,1.4a4.228,4.228,0,0,0,2-.5v3.3a6.439,6.439,0,0,1-3.3.8C159.3,180.3,157.6,179.3,157.6,176Z" fill="#ff0001"/>
    </g>
    <g id="Gruppe_67805" data-name="Gruppe 67805">
      <path id="Pfad_31236" data-name="Pfad 31236" d="M172.6,172.9h0a7.472,7.472,0,0,1,7.6-7.6,7.15,7.15,0,0,1,5.8,2.4l-2.5,2.7a4.076,4.076,0,0,0-3.3-1.6c-2.1,0-3.5,1.8-3.5,4v.1a3.706,3.706,0,0,0,3.7,4,4.632,4.632,0,0,0,3.3-1.5l2.4,2.4a7.385,7.385,0,0,1-5.9,2.7A7.6,7.6,0,0,1,172.6,172.9Z" fill="#ff0001"/>
    </g>
    <g id="Gruppe_67806" data-name="Gruppe 67806">
      <path id="Pfad_31237" data-name="Pfad 31237" d="M186.6,178.1l1.8-2.7a8.449,8.449,0,0,0,4.6,1.7c1.2,0,1.7-.4,1.7-1.1h0c0-.9-1.4-1.2-3-1.7-2-.6-4.3-1.5-4.3-4.4v-.1c0-3,2.4-4.6,5.3-4.6a9.59,9.59,0,0,1,5.4,1.7l-1.6,2.9a9.256,9.256,0,0,0-3.9-1.4c-1,0-1.5.4-1.5,1v.1c0,.8,1.4,1.2,3,1.7,2,.7,4.4,1.7,4.4,4.3v.1c0,3.2-2.4,4.7-5.6,4.7A9.7,9.7,0,0,1,186.6,178.1Z" fill="#ff0001"/>
    </g>
    <g id="Gruppe_67807" data-name="Gruppe 67807">
      <path id="Pfad_31238" data-name="Pfad 31238" d="M167.2,160h4.3v3.7h-4.3Zm.1,5.5h4.1V180h-4.1Z" fill="#ff0001"/>
    </g>
  </g>
  <g id="Gruppe_67809" data-name="Gruppe 67809">
    <path id="Pfad_31239" data-name="Pfad 31239" d="M47.8,16,74.3,0,181.1,26.6l-26.7,107-26.5,16L21.1,123Z" fill="#ffe501"/>
  </g>
  <g id="Gruppe_67810" data-name="Gruppe 67810">
    <path id="Pfad_31240" data-name="Pfad 31240" d="M47.8,16,63.2,6.7l1.3,5.6-4.9,2.9,5.9,1.5,1.1,4.5-9.1,5.4-4.6-1.2-1.2,4.7-8.8,5.3Z" fill="#ff0001"/>
  </g>
  <g id="Gruppe_67811" data-name="Gruppe 67811">
    <path id="Pfad_31241" data-name="Pfad 31241" d="M69.1,3.1l1.3,5.6,6.4-3.9,7.9,2-1-4.5L74.3,0Z" fill="#ff0001"/>
  </g>
  <g id="Gruppe_67812" data-name="Gruppe 67812">
    <path id="Pfad_31242" data-name="Pfad 31242" d="M72.8,18.5l1,4.5-9,5.4,15.6,3.9,9.1-5.4-1.1-4.5Z" fill="#ff0001"/>
  </g>
  <g id="Gruppe_67813" data-name="Gruppe 67813">
    <path id="Pfad_31243" data-name="Pfad 31243" d="M90.7,4.1l1,4.4,15.6,4-1-4.5Z" fill="#ff0001"/>
  </g>
  <g id="Gruppe_67814" data-name="Gruppe 67814">
    <path id="Pfad_31244" data-name="Pfad 31244" d="M113.6,9.8l1,4.4,18,4.5-1-4.4Z" fill="#ff0001"/>
  </g>
  <g id="Gruppe_67815" data-name="Gruppe 67815">
    <path id="Pfad_31245" data-name="Pfad 31245" d="M138.7,16l1.1,4.5,16.8,4.2-1-4.4Z" fill="#ff0001"/>
  </g>
  <g id="Gruppe_67816" data-name="Gruppe 67816">
    <path id="Pfad_31246" data-name="Pfad 31246" d="M87.4,34l15.7,3.9,9-5.4-1-4.5L95.4,24.1l1.1,4.5Z" fill="#ff0001"/>
  </g>
  <g id="Gruppe_67817" data-name="Gruppe 67817">
    <path id="Pfad_31247" data-name="Pfad 31247" d="M110.3,39.8l18,4.4,9-5.4-1-4.5-18-4.5,1.1,4.5Z" fill="#ff0001"/>
  </g>
  <g id="Gruppe_67818" data-name="Gruppe 67818">
    <line id="Linie_122" data-name="Linie 122" x2="17.8" y2="4.5" transform="translate(118.3 29.8)" fill="#ff0001"/>
  </g>
  <g id="Gruppe_67819" data-name="Gruppe 67819">
    <path id="Pfad_31248" data-name="Pfad 31248" d="M135.4,46l9.1-5.4-1.1-4.5,8.3,2.1,7.1-4.3,1.4,6.1,3.5,4.4-5.4,3.3-2.4,9.8-3.8-4.9L143,58.1l2.4-9.6Z" fill="#ff0001"/>
  </g>
  <g id="Gruppe_67820" data-name="Gruppe 67820">
    <path id="Pfad_31249" data-name="Pfad 31249" d="M141.1,65.5l9.1-5.4,3.8,4.8-3.8,15.2-3.8-4.8-9,5.4Z" fill="#ff0001"/>
  </g>
  <g id="Gruppe_67821" data-name="Gruppe 67821">
    <path id="Pfad_31250" data-name="Pfad 31250" d="M135.5,88.2l9-5.4,3.9,4.8L144.5,103l-3.8-4.8-9.1,5.4Z" fill="#ff0001"/>
  </g>
  <g id="Gruppe_67822" data-name="Gruppe 67822">
    <path id="Pfad_31251" data-name="Pfad 31251" d="M129.8,111.1l9-5.4,3.8,4.8-3.8,15.4-3.8-4.8-9.1,5.4Z" fill="#ff0001"/>
  </g>
  <g id="Gruppe_67823" data-name="Gruppe 67823">
    <path id="Pfad_31252" data-name="Pfad 31252" d="M106.8,144.4l8.8-5.3,6.8,1.7,1.7-6.8,9-5.4,3.8,4.8-1.3,5.2,3.7-2.2,3.4,4.3-14.8,8.9Z" fill="#ff0001"/>
  </g>
  <g id="Gruppe_67824" data-name="Gruppe 67824">
    <path id="Pfad_31253" data-name="Pfad 31253" d="M83.9,138.7l8.8-5.3,15.4,3.8-8.7,5.3Z" fill="#ff0001"/>
  </g>
  <g id="Gruppe_67825" data-name="Gruppe 67825">
    <path id="Pfad_31254" data-name="Pfad 31254" d="M61,132.9l8.8-5.2,15.4,3.8-8.7,5.3Z" fill="#ff0001"/>
  </g>
  <g id="Gruppe_67826" data-name="Gruppe 67826">
    <path id="Pfad_31255" data-name="Pfad 31255" d="M38.4,127.3l8.7-5.3,15.2,3.8-8.7,5.3Z" fill="#ff0001"/>
  </g>
  <g id="Gruppe_67827" data-name="Gruppe 67827">
    <path id="Pfad_31256" data-name="Pfad 31256" d="M23.5,113.3l8.8-5.3-2.5,9.7,9.9,2.5-8.8,5.2L21.1,123Z" fill="#ff0001"/>
  </g>
  <g id="Gruppe_67828" data-name="Gruppe 67828">
    <path id="Pfad_31257" data-name="Pfad 31257" d="M25.3,106.2l4.5-18.1,8.7-5.2-4.5,18Z" fill="#ff0001"/>
  </g>
  <g id="Gruppe_67829" data-name="Gruppe 67829">
    <path id="Pfad_31258" data-name="Pfad 31258" d="M31.6,80.9l3.9-15.6L44.2,60,40.3,75.7Z" fill="#ff0001"/>
  </g>
  <g id="Gruppe_67830" data-name="Gruppe 67830">
    <path id="Pfad_31259" data-name="Pfad 31259" d="M37.2,58.3l3.9-15.7,8.8-5.3L46,53Z" fill="#ff0001"/>
  </g>
  <g id="Gruppe_67831" data-name="Gruppe 67831">
    <path id="Pfad_31260" data-name="Pfad 31260" d="M161.7,21.8l1.1,4.5,6.1,1.5-5,3,1.4,6.1,3.5,4.5,5.2-3.1-1.8,7.3,3.2,4,5.7-23Z" fill="#ff0001"/>
  </g>
  <g id="Gruppe_67832" data-name="Gruppe 67832">
    <path id="Pfad_31261" data-name="Pfad 31261" d="M170.4,52.8l3.2,4.1-4.4,17.4-3.2-4Z" fill="#ff0001"/>
  </g>
  <g id="Gruppe_67833" data-name="Gruppe 67833">
    <path id="Pfad_31262" data-name="Pfad 31262" d="M164.2,77.8l3.2,4L163.6,97l-3.2-4.1Z" fill="#ff0001"/>
  </g>
  <g id="Gruppe_67834" data-name="Gruppe 67834">
    <path id="Pfad_31263" data-name="Pfad 31263" d="M158.5,100.4l3.2,4.1-3.8,15.4-3.2-4.1Z" fill="#ff0001"/>
  </g>
  <g id="Gruppe_67835" data-name="Gruppe 67835">
    <path id="Pfad_31264" data-name="Pfad 31264" d="M144.6,133.2l6.7-4,1.5-5.9,3.2,4.1-1.6,6.2-6.4,3.9Z" fill="#ff0001"/>
  </g>
  <g id="Gruppe_67836" data-name="Gruppe 67836" opacity="0.3">
    <path id="Pfad_31265" data-name="Pfad 31265" d="M47.8,16,154.4,43.2l26.7-16.6L74.3,0Z" fill="#fff"/>
  </g>
  <g id="Gruppe_67837" data-name="Gruppe 67837" opacity="0.2">
    <path id="Pfad_31266" data-name="Pfad 31266" d="M181.1,26.6l-26.7,107-26.5,16L154.4,43.2Z"/>
  </g>
  <g id="Gruppe_67843" data-name="Gruppe 67843">
    <g id="Gruppe_67842" data-name="Gruppe 67842">
      <g id="Gruppe_67838" data-name="Gruppe 67838">
        <path id="Pfad_31267" data-name="Pfad 31267" d="M50.4,108.3c-5.3-8.5-3-20.3,7.2-26.6,5.3-3.3,10.6-3.5,13.9-2.3l-2,7.9a11.014,11.014,0,0,0-8.3,1.3,10.51,10.51,0,0,0-3.5,14.7c2.3,3.7,6.2,4,9.5,2a9.733,9.733,0,0,0,3.1-2.9l-1.2-4.2-5.2,3.1L62.1,95l12.1-7.1,4.6,15.4a23.968,23.968,0,0,1-8.3,8.9C64.2,116,55.5,116.5,50.4,108.3Z" fill="#0a2363"/>
      </g>
      <g id="Gruppe_67839" data-name="Gruppe 67839">
        <path id="Pfad_31268" data-name="Pfad 31268" d="M91.9,92a8.3,8.3,0,0,0,3.4-4.4l5.8,1.9a14.672,14.672,0,0,1-6.5,8.3c-6.1,3.8-12.1,2.5-15.5-3.1a14.561,14.561,0,0,1,4.7-20.1c6.1-3.8,11.3-1.4,14.1,3.1a15.21,15.21,0,0,1,1.9,5L86,91C87.4,93,89.5,93.5,91.9,92Zm-.3-9.6a6.117,6.117,0,0,0-.5-1.2,3.043,3.043,0,0,0-4.5-.9,5.769,5.769,0,0,0-2.4,6.5Z" fill="#0a2363"/>
      </g>
      <g id="Gruppe_67840" data-name="Gruppe 67840">
        <path id="Pfad_31269" data-name="Pfad 31269" d="M94.6,59.2l7.4-4.4,1.9,6.2-7.4,4.4Zm2.6,8.6,7.4-4.5,7.2,23.9-7.5,4.4Z" fill="#0a2363"/>
      </g>
      <g id="Gruppe_67841" data-name="Gruppe 67841">
        <path id="Pfad_31270" data-name="Pfad 31270" d="M113.7,83.2l.5-6.5a13.192,13.192,0,0,0,8.4-2.1c1.2-.9,1.4-1.7.9-2.5-.5-.7-1.6-.5-4,.1-4,1.1-7.4,1.4-9.7-1.7-2.9-3.9-2-9.3,3.4-13.2a17.51,17.51,0,0,1,10.5-3.5l-.3,6.5a12.607,12.607,0,0,0-7.1,2c-1.1.8-1.4,1.7-.9,2.4.5.6,1.5.5,4.1-.1,3.6-.9,7.3-1.5,9.7,1.7,2.8,3.8,2.3,9.1-3.3,13.2A18.066,18.066,0,0,1,113.7,83.2Z" fill="#0a2363"/>
      </g>
    </g>
  </g>
  <g id="Gruppe_67844" data-name="Gruppe 67844">
    <path id="Pfad_31271" data-name="Pfad 31271" d="M20.6,119.7" fill="none" stroke="#fff" stroke-miterlimit="10" stroke-width="0.202"/>
  </g>
  <g id="Gruppe_67845" data-name="Gruppe 67845">
    <path id="Pfad_31272" data-name="Pfad 31272" d="M149.2,43.7" fill="none" stroke="#fff" stroke-miterlimit="10" stroke-width="0.202"/>
  </g>
</svg>
