<svg xmlns="http://www.w3.org/2000/svg" viewBox="0 0 64 64" fill="none">
  <rect width="64" height="64" rx="14" fill="#1565C0"/>
  <rect x="14" y="28" width="36" height="22" rx="3" fill="#fff" opacity=".95"/>
  <path d="M14 31a3 3 0 0 1 3-3h30a3 3 0 0 1 3 3v2H14v-2Z" fill="#0D47A1" opacity=".3"/>
  <rect x="18" y="34" width="10" height="3" rx="1" fill="#1565C0" opacity=".5"/>
  <rect x="18" y="39" width="14" height="3" rx="1" fill="#1565C0" opacity=".35"/>
  <rect x="18" y="44" width="8" height="3" rx="1" fill="#1565C0" opacity=".25"/>
  <rect x="36" y="34" width="10" height="5" rx="1.5" fill="#42A5F5" opacity=".6"/>
  <path d="M24 14l8 10 8-10" stroke="#fff" stroke-width="2.5" stroke-linecap="round" stroke-linejoin="round" fill="none"/>
  <circle cx="24" cy="14" r="3" fill="#42A5F5"/>
  <circle cx="40" cy="14" r="3" fill="#42A5F5"/>
  <circle cx="32" cy="24" r="3" fill="#fff"/>
</svg>
