<?xml version="1.0" encoding="UTF-8" standalone="no"?>
<svg
   xmlns:svg="http://www.w3.org/2000/svg"
   xmlns="http://www.w3.org/2000/svg"
   version="1.1"
   width="819.125"
   height="180.71431"
   id="svg3035">
  <defs
     id="defs3037" />
  <g
     transform="translate(-24.72321,-390.57646)"
     id="layer1">
    <path
       d="m 24.72321,390.57646 0,176.74522 57.760979,0 0,-61.72994 8.61348,0 c 6.860383,0 12.349361,0.23645 16.551391,0.67557 l 0.67557,0 c 4.42834,0.43912 8.44796,1.08766 11.99131,2.19559 6.63069,2.43542 10.17404,11.75487 11.06241,28.12048 0.65868,16.5882 1.76323,26.75245 2.87116,30.7383 l 58.60544,0 0,-5.06675 c -2.4388,0 -4.01962,-1.39202 -4.89786,-4.05341 -0.88837,-2.42496 -1.26669,-7.06305 -1.26669,-13.258 l 0,-13.93357 c 0,-13.04857 -1.54367,-22.72607 -4.64452,-29.13383 -3.09748,-6.4145 -11.49815,-12.45407 -24.99598,-17.98697 8.84993,-2.21248 15.92311,-6.80296 21.44925,-14.10246 5.30996,-7.2995 8.19125,-16.87904 8.19125,-29.04938 0,-15.70355 -4.49252,-27.35033 -13.34245,-34.87615 -11.72109,-10.17404 -32.69069,-15.2847 -62.99662,-15.2847 l -85.62812,0 z m 351.54818,0 0,176.74522 45.51633,0 0,-18.15586 0.9289,0 c 3.98247,7.51838 9.23838,13.2607 15.87583,16.80472 2.87116,1.54638 6.02606,2.66512 9.12015,3.54673 4.42159,1.1015 8.81278,1.77337 13.68024,1.77337 16.36561,0 29.65401,-4.62088 39.60511,-13.68024 12.60946,-11.73427 19.00032,-30.3262 19.00032,-55.98761 0,-20.79058 -5.69503,-37.42642 -17.64918,-49.82307 -10.61654,-11.05903 -23.23275,-16.55139 -37.83176,-16.55139 -6.42126,0 -11.93727,0.64179 -16.80473,2.19559 -1.33424,0.43574 -2.63808,0.91539 -3.96895,1.35114 -5.52952,2.43541 -11.10295,6.81309 -16.63584,13.00466 l 0,-61.22326 -50.83642,0 z m -293.787201,41.12514 27.867141,0 c 6.41451,0 11.92713,1.54367 16.12916,4.64452 4.20203,3.09748 6.41789,7.50893 6.41789,13.25801 0,5.09039 -1.54367,9.083 -4.64453,11.73797 -3.97909,3.5366 -10.86649,5.35725 -20.60479,5.57343 l -0.84446,0 -24.320411,0 0,-35.21393 z m 196.167771,3.54673 c -22.78688,1.10117 -39.32813,5.29644 -50.16085,13.258 -9.2958,6.86038 -14.18691,16.84189 -14.18691,29.89384 l 49.31639,0 c 0.4425,-4.65128 2.226,-7.97169 5.32009,-9.96461 2.4388,-1.32749 5.50925,-2.22937 9.71128,-2.44893 0.88499,-0.22645 2.01995,-0.25321 3.1245,-0.25321 5.31671,0 9.28567,1.13496 12.1602,3.1245 2.6516,1.9963 3.96896,4.64115 3.96896,7.51569 0,3.98246 -1.49638,6.69149 -4.81342,8.02235 -1.98954,0.65868 -6.70162,1.48625 -14.44024,3.04006 -6.19495,0.88499 -14.16326,2.25301 -23.89818,3.80006 -18.36191,2.6516 -31.15378,7.69809 -38.67621,14.77803 -6.41451,6.41451 -9.54239,15.07898 -9.54239,25.92488 0,13.93087 5.08027,24.5106 15.70693,31.58276 7.742,5.09445 17.50732,7.76902 28.79605,7.76902 9.95448,0 19.26041,-1.31803 27.44491,-3.96896 l 0.16889,-0.25347 c 7.96494,-2.65092 15.51777,-7.26234 22.37816,-13.68023 l 2.44893,13.93357 52.60978,0 0,-2.44893 c -3.32379,-2.65498 -5.24916,-5.06946 -5.91121,-6.84012 -0.66544,-1.76966 -0.92891,-5.57072 -0.92891,-11.31574 l 0,-62.82774 c 0,-16.81148 -3.79331,-28.97507 -11.31574,-36.05839 -9.06949,-8.40405 -25.65804,-12.58243 -49.99196,-12.58243 l -9.28905,0 z m 329.84559,0 c -23.22599,0 -41.53386,7.06643 -54.80537,21.44925 -11.9474,12.82226 -17.98697,28.57649 -17.98697,47.37414 0,20.35145 6.65433,36.72752 19.92922,48.89416 13.0452,12.16291 31.02204,18.32476 53.3698,18.32476 l 0.84446,0 c 20.79733,0 37.64597,-4.62088 50.24529,-13.68024 10.40036,-7.52887 16.97025,-17.33234 19.84478,-29.04938 l -48.89416,0 c -3.75615,7.74132 -10.18079,11.56909 -19.25366,11.56909 l -1.94225,0 c -5.97202,-0.43809 -11.03201,-2.43307 -15.4536,-6.41789 -5.3032,-4.64858 -8.02236,-11.12659 -8.02236,-19.08477 l 98.04167,0 c 0,-21.01351 -5.57681,-38.65256 -16.63584,-53.03201 -13.0452,-17.25398 -32.48802,-26.13093 -57.92987,-26.34711 l -1.35114,0 z m 185.61204,0 c -8.85331,0 -16.60206,1.72945 -23.89818,5.48898 -7.07657,3.54335 -13.73428,9.77883 -19.92923,18.4092 l 0,-20.60479 -46.44523,0 0,128.77996 50.92086,0 0,-65.69889 c 0,-9.95448 1.95577,-17.29114 5.48898,-21.28036 3.10423,-3.31366 7.97507,-4.81342 14.60914,-4.81342 6.41789,0 10.89014,1.75985 13.76468,5.74232 2.66173,3.75615 3.96895,9.68763 3.96895,17.64919 l 0,68.40116 51.25865,0 0,-77.43687 c 0,-19.24353 -5.08026,-33.60946 -15.03137,-42.8985 -8.40743,-7.96156 -19.88193,-11.73798 -34.70725,-11.73798 z m -184.2609,30.99163 0.67556,0 c 5.96526,0 11.22793,2.18209 15.87583,6.16455 4.6479,4.20541 7.09345,9.54914 7.09345,15.96027 l -47.1208,0 c 0,-14.60238 7.76227,-21.90863 23.47596,-22.12482 z m -162.13609,8.19125 0.42223,0 c 7.30964,0 12.87293,3.30353 16.63584,9.71128 3.10423,5.54303 4.64452,12.19061 4.64452,19.92923 0,8.62699 -1.80714,15.49413 -4.89786,21.02702 -3.77304,6.19495 -9.50522,9.28905 -16.80473,9.28905 -7.74199,0 -13.72076,-3.76629 -17.48029,-11.06241 -2.6516,-5.53627 -3.96896,-12.01834 -3.96896,-19.76034 0,-7.96493 1.49976,-14.53482 4.81342,-19.84478 3.7629,-5.97539 9.33295,-9.06611 16.63583,-9.28905 z m -149.80698,36.05839 0,4.64453 c 0,7.96831 -1.92874,14.59832 -5.91121,19.67589 -3.31704,4.21148 -7.81631,6.59723 -13.34245,7.26234 -1.33087,0.22294 -2.63471,0.2532 -3.96896,0.2532 -4.42834,0 -8.18449,-0.93936 -11.06241,-2.70226 -2.87453,-1.9936 -4.39118,-4.61683 -4.39118,-7.93792 0,-6.63069 4.64452,-11.31574 13.93357,-14.1869 1.55042,-0.4425 3.2765,-0.8546 5.48898,-1.52003 4.8607,-1.32073 11.2921,-3.05356 19.25366,-5.48898 z"
       id="path22"
       style="fill:#c31325;fill-opacity:1;fill-rule:nonzero;stroke:none" />
  </g>
</svg>
