<svg xmlns="http://www.w3.org/2000/svg" width="120" height="72" viewBox="0 0 120 72" fill="none">
  <path d="M20.7899 24.0005L0.00585938 11.9993V35.9994L20.7899 24.0005L0.00585938 11.9993V35.9994L20.7899 24.0005Z" fill="#F38434"/>
  <path d="M0.00585938 12.0001L20.7899 24.0009V0L0.00585938 12.0001L20.7899 24.0009V0L0.00585938 12.0001Z" fill="#F1603A"/>
  <path d="M41.5746 59.9988L20.7891 47.998V72L41.5746 59.9988L20.7891 47.998V72L41.5746 59.9988Z" fill="#F99F37"/>
  <path d="M41.5691 12.0016L20.7832 0V24.0009L41.5691 12.0016L20.7832 0V24.0009L41.5691 12.0016Z" fill="#F38434"/>
  <path d="M0 35.9975L20.787 47.9999V23.9994L0 35.9975L20.787 47.9999V23.9994L0 35.9975Z" fill="#F9A034"/>
  <path d="M20.7891 48.0024L41.5734 36.0009V60.0017L20.7891 48.0024L41.5734 36.0009V60.0017L20.7891 48.0024Z" fill="#EFD141"/>
  <path d="M41.5715 35.9997L20.7891 24.0008V48.0013L41.5715 35.9997L20.7891 24.0008V48.0013L41.5715 35.9997Z" fill="#F4B730"/>
  <path d="M0 59.9987L20.787 47.9994V71.9999L0 59.9987L20.787 47.9994V71.9999L0 59.9987Z" fill="#EFD141"/>
  <path d="M66.0992 19.0586C65.7521 17.4977 64.0684 16.8287 62.5561 16.8525C61.3912 16.8783 60.1031 17.274 59.4094 18.1672C59.0631 18.6125 58.9394 19.1815 58.9887 19.7766C59.1128 21.5605 61.0707 21.7846 62.9286 21.9588C65.3072 22.2546 68.2555 22.8748 68.9238 25.649C68.9986 26.0222 69.0494 26.4417 69.0494 26.7892C69.0494 30.1347 65.7282 32.0684 62.6061 32.0684C59.9305 32.0684 56.6856 30.4821 56.3632 27.3839L56.3381 26.9129L58.8651 26.8632L58.8901 27.2345V27.1374C59.0634 28.7464 61.0214 29.5888 62.6312 29.5888C64.4886 29.5888 66.5213 28.5488 66.5213 26.7653C66.5213 26.592 66.4963 26.3943 66.4466 26.1706C66.1492 24.8563 64.365 24.634 62.6312 24.4606C59.9305 24.1887 56.7599 23.5932 56.4864 19.975V20.0008C56.3874 18.8363 56.6852 17.6711 57.4267 16.705C58.592 15.1931 60.674 14.4003 62.6793 14.4003C65.3572 14.4003 68.13 15.7886 68.5779 18.96L66.0992 19.0586Z" fill="black"/>
  <path d="M73.7845 29.416H81.8364V31.9186H71.2561V14.5988H81.8118V17.1003H73.7845V21.9816H81.6384V24.5101H73.7845V29.416Z" fill="black"/>
  <path d="M86.567 29.416H94.7186V31.9186H84.0647V14.5988H86.567V29.416Z" fill="black"/>
  <path d="M99.4051 29.416H107.556V31.9186H96.9028V14.5988H99.4051V29.416Z" fill="black"/>
  <path d="M67.8849 51.6051H59.1131L56.7599 57.4278H56.3381L63.2999 39.8353H63.7202L70.685 57.4278H70.2632L67.8849 51.6051ZM59.2857 51.2337H67.7362L63.4983 40.3553L59.2857 51.2337Z" fill="black"/>
  <path d="M83.3487 43.7252C83.1996 43.006 82.903 42.3882 82.4069 41.8435C81.3414 40.7025 79.6311 40.2314 78.0714 40.2572C76.4351 40.2815 74.5765 40.8759 73.5372 42.2391C72.917 43.006 72.6936 43.9236 72.768 44.8912C73.2148 50.9601 82.9269 46.2032 84.1164 51.7528C84.9103 55.4207 81.4408 57.6009 78.1457 57.6009C75.6177 57.6009 72.5464 56.1653 72.2487 53.3649L72.2229 53.1915L72.6185 53.1411L72.6432 53.3144C72.9174 55.9145 75.8157 57.23 78.1704 57.23C81.1927 57.23 84.4634 55.2716 83.7454 51.8268C82.6306 46.6743 72.8427 51.3819 72.3974 44.914C72.2969 43.8731 72.5711 42.8566 73.2144 42.0165C75.7413 38.7442 82.8776 39.1656 83.7208 43.6501L83.745 43.8485L83.3733 43.9232L83.3487 43.7252Z" fill="black"/>
  <path d="M93.6071 40.4559H89.9161V57.0558H93.6071V57.4279H85.8518V57.0558H89.544V40.4559H85.8518V40.1084H93.6071V40.4559Z" fill="black"/>
  <path d="M106.962 43.7252C106.813 43.006 106.516 42.3882 106.02 41.8435C104.955 40.7025 103.246 40.2314 101.684 40.2572C100.048 40.2815 98.1901 40.8759 97.1493 42.2391C96.5307 43.006 96.3073 43.9236 96.382 44.8912C96.8269 50.9601 106.54 46.2032 107.731 51.7528C108.522 55.4207 105.054 57.6009 101.758 57.6009C99.2298 57.6009 96.1582 56.1653 95.8612 53.3649L95.8362 53.1915L96.2329 53.1411L96.2576 53.3144C96.5311 55.9145 99.4282 57.23 101.783 57.23C104.806 57.23 108.077 55.2716 107.357 51.8268C106.243 46.6743 96.456 51.3819 96.0095 44.914C95.9105 43.8731 96.1832 42.8566 96.8265 42.0165C99.3535 38.7442 106.491 39.1656 107.333 43.6501L107.357 43.8485L106.987 43.9232L106.962 43.7252Z" fill="black"/>
  <path d="M113.259 57.428V40.4792H107.262V40.0835H119.626V40.4792H113.631V57.428H113.259Z" fill="black"/>
</svg>
