<svg version="1.2" xmlns="http://www.w3.org/2000/svg" viewBox="0 0 1552 418" width="1552" height="418">
	<title>SHO-svg</title>
	<defs>
		<clipPath clipPathUnits="userSpaceOnUse" id="cp1">
			<path d="m1551.5 0v417h-1551.5v-417z"/>
		</clipPath>
	</defs>
	<style>
		.s0 { fill: #002fff } 
	</style>
	<g id="Clip-Path" clip-path="url(#cp1)">
		<g id="Layer">
			<path id="Layer" fill-rule="evenodd" class="s0" d="m83.4 154.8c0 8.1 8.2 14.5 24.4 19.2l39 11.6c20.7 6.1 36.9 15.5 47.9 27.9 11.2 12.6 16.9 28.2 16.9 46.5 0 23.5-9.1 42.8-27.1 57.3-17.7 14.4-41.4 21.7-70.3 21.7-27.3 0-51.5-6.6-71.6-19.5-20.4-13-34.4-30.7-41.8-52.8l-0.8-2.4 54.2-25.6 1.2 2.6c6 12.6 14.3 22.6 24.6 29.8 10.2 7 21.7 10.6 34.2 10.6 11.5 0 26.7-1.9 26.7-19 0-8.5-7.2-14.6-22.1-18.8l-41.7-11.6c-20.4-5.8-36.4-15.4-47.5-28.4-11.2-13.2-16.8-29-16.8-46.9 0-15.8 4.1-29.7 12.1-41.4 8-11.8 19.4-21.1 33.9-27.7 14.3-6.5 31-9.9 49.5-9.9 24.4 0 46.1 5.8 64.5 17.2 18.5 11.5 31.8 27.9 39.5 48.7l0.9 2.5-55 25.7-1-3c-3.4-9.5-9.6-17.2-18.4-22.9-8.9-5.8-19.1-8.8-30.5-8.8-8 0-14.3 1.7-18.6 4.9-4.2 3-6.3 7.1-6.3 12.4zm352.3-64.7c14.3 8 25.5 19.3 33.5 33.6 8 14.2 12 31 12 50v160h-72.9v-145.7c0-13.3-3.9-23.9-11.7-31.9-7.9-8-17.7-11.8-30.2-11.8-12.5 0-22.3 3.8-30.2 11.8-7.8 8-11.7 18.7-11.7 31.9v145.7h-73v-321.5l73-12.1v101.1c6.3-6.9 14-12.2 22.9-15.9 11.3-4.8 24.2-7.2 38.3-7.2 18.9 0 35.7 4.1 50 12zm0 0h-0.1q0.1 0 0.1 0zm329.3 51.2c12 19.4 18.1 42.1 18.1 67.3 0 25.2-6.1 47.5-18.1 67.1-12 19.6-28.3 35.2-48.3 46.4-20.1 11.3-42.7 17-67.3 17-24.6 0-47.2-5.7-67.4-17-20.2-11.2-36.6-26.8-48.6-46.4-12-19.6-18.1-42.2-18.1-67.1 0-24.9 6.1-47.9 18.1-67.3 12.1-19.5 28.4-35 48.6-46.2 20.2-11.3 42.8-17 67.4-17 24.6 0 47.2 5.7 67.3 17 20 11.2 36.3 26.7 48.3 46.2zm-57 67.3c0-18.6-5.5-34.2-16.4-46.2-10.7-12-24.9-18.1-42.2-18.1-17.3 0-31.6 6.1-42.4 18.1-10.9 12.1-16.5 27.7-16.5 46.2 0 18.6 5.5 34.5 16.4 46.5 10.9 11.8 25.2 17.8 42.5 17.8 17.3 0 31.5-6 42.2-17.8 10.8-11.9 16.3-27.6 16.3-46.5zm364-66.1c11.3 19.6 17 41.9 17 66.1 0 24.3-5.7 46.2-16.8 65.9-11.1 19.8-26.4 35.6-45.6 47.2-19.2 11.5-41.2 17.4-65.5 17.4-14 0-27.3-2.1-39.6-6.2-10.3-3.4-19.5-8.3-27.4-14.5v86.6l-72.9 12.2v-333.7h68.4v21c17.5-17.5 41.7-26.4 71.9-26.4 23.7 0 45.5 5.9 64.7 17.5 19.1 11.5 34.5 27.3 45.8 46.9zm-161.4 19.7c-11 11.9-16.5 27.6-16.5 46.4 0 18.8 5.5 34.9 16.5 46.6 10.9 11.7 25.1 17.7 42.4 17.7 17.4 0 32.3-6 43.6-17.9 11.4-12 17.2-27.6 17.2-46.4 0-18.8-5.8-34.1-17.2-46.2-11.3-12-26-18.1-43.6-18.1-17.6 0-31.5 6-42.4 17.9zm439.4-23.2c9.6 18.4 14.4 39.4 14.4 62.4 0 4.9-0.3 9.7-0.7 14.4-0.4 4.9-1.3 9.1-2.6 12.6l-0.7 1.8h-169.8c2.2 13 7.8 23.7 17 31.7 9.8 8.7 22.8 13.2 38.4 13.2 11.4 0 21.2-2.3 29.3-6.8 8-4.5 14.3-10.7 18.8-18.6l1.4-2.3 58.6 27.8-1 2.5c-7.7 18.4-21.4 33.4-40.7 44.6-19.1 11.1-41.8 16.7-67.3 16.7-25.5 0-49.6-5.9-69.1-17.6-19.5-11.8-34.8-27.7-45.4-47.5-10.6-19.7-16-41.9-16-65.8 0-24 5.6-47.4 16.7-66.8 11.1-19.5 26.3-35.1 45.1-46.3 18.9-11.2 40.5-17 64.2-17 26.4 0 49 5.6 67.4 16.6 18.3 10.9 32.4 25.8 42 44.3zm-140.9 9.1c-7.8 6.4-13.4 15.5-16.8 27.2h94.7c-1.9-10.7-6.7-19.5-14.3-26.4-8.3-7.5-19.2-11.3-32.1-11.3-12.9 0-23 3.5-31.5 10.5zm342.5-67.3v63.9h-23.9c-15.6 0-28.3 4.8-37.9 14.2-9.5 9.4-14.4 23-14.4 40.3v122.9l-72.9 11.6v-250.2h68.5v27.4c5.9-10 13.4-17.2 22.5-21.5 11.8-5.7 25.6-8.6 40.9-8.6z"/>
		</g>
	</g>
</svg>