<svg xmlns="http://www.w3.org/2000/svg" width="64" height="64" viewBox="0 0 64 64">
  <rect width="64" height="64" rx="8" fill="#4A154B"/>
  <g>
    <!-- Top-left: teal/cyan -->
    <path d="M18.4 35.6c0 2.1-1.7 3.8-3.8 3.8s-3.8-1.7-3.8-3.8 1.7-3.8 3.8-3.8h3.8v3.8z" fill="#2EB67D"/>
    <path d="M20.3 35.6c0-2.1 1.7-3.8 3.8-3.8s3.8 1.7 3.8 3.8v9.6c0 2.1-1.7 3.8-3.8 3.8s-3.8-1.7-3.8-3.8v-9.6z" fill="#2EB67D"/>
    <!-- Top-right: blue -->
    <path d="M24.1 18.4c-2.1 0-3.8-1.7-3.8-3.8s1.7-3.8 3.8-3.8 3.8 1.7 3.8 3.8v3.8h-3.8z" fill="#36C5F0"/>
    <path d="M24.1 20.3c2.1 0 3.8 1.7 3.8 3.8s-1.7 3.8-3.8 3.8h-9.6c-2.1 0-3.8-1.7-3.8-3.8s1.7-3.8 3.8-3.8h9.6z" fill="#36C5F0"/>
    <!-- Bottom-right: yellow -->
    <path d="M41.3 24.1c0-2.1 1.7-3.8 3.8-3.8s3.8 1.7 3.8 3.8-1.7 3.8-3.8 3.8h-3.8v-3.8z" fill="#ECB22E"/>
    <path d="M39.4 24.1c0 2.1-1.7 3.8-3.8 3.8s-3.8-1.7-3.8-3.8v-9.6c0-2.1 1.7-3.8 3.8-3.8s3.8 1.7 3.8 3.8v9.6z" fill="#ECB22E"/>
    <!-- Bottom-left: red/pink -->
    <path d="M35.6 41.3c2.1 0 3.8 1.7 3.8 3.8s-1.7 3.8-3.8 3.8-3.8-1.7-3.8-3.8v-3.8h3.8z" fill="#E01E5A"/>
    <path d="M35.6 39.4c-2.1 0-3.8-1.7-3.8-3.8s1.7-3.8 3.8-3.8h9.6c2.1 0 3.8 1.7 3.8 3.8s-1.7 3.8-3.8 3.8h-9.6z" fill="#E01E5A"/>
  </g>
</svg>
