<svg xmlns="http://www.w3.org/2000/svg" width="64" height="64" viewBox="0 0 64 64">
  <rect width="64" height="64" rx="8" fill="#7f54b3"/>
  <path d="M8.5 18.5c0-3.3 2.7-6 6-6h35c3.3 0 6 2.7 6 6v18.7c0 3.3-2.7 6-6 6H36.8l-5.3 8.3-5.3-8.3H14.5c-3.3 0-6-2.7-6-6V18.5z" fill="#fff" opacity="0.95"/>
  <g fill="#7f54b3">
    <circle cx="17.5" cy="22" r="1.8"/>
    <circle cx="27" cy="22" r="1.8"/>
    <path d="M14.2 24.8c.5 3.8 1.5 6.8 3 9 1.5 2 3.1 2.7 4.4 1.5 1.2-1.1 2-3.7 2.2-7.5l.1-1.5c.7 4.2 2 7.2 3.8 8.8 1.5 1.3 3 1 4.2-.8 1-1.6 1.6-4 1.8-7l.8 5.4c.5 2.8 1.3 4.6 2.4 5.3 1.5.9 2.8 0 3.8-2.5.7-1.8 1.3-4.3 1.7-7.5l.6-4.2-.5-.1-.8 4.5c-.6 3.5-1.3 5.7-2.2 6.8-.8 1-1.5.8-2.2-.8-.5-1.2-.9-3-1.2-5.4l-1-7-.5.1-.3 3.2c-.4 4.3-1.1 7.2-2.1 8.7-.9 1.3-1.8 1.3-2.8.1-1.2-1.5-2.1-4.3-2.8-8.5l-.8-4.8-.5.1-.1 2.5c-.2 4-1 6.8-2.3 8.3-1.1 1.3-2.2 1.1-3.2-.7-1-1.7-1.6-4.3-2-7.7l-.5-4.8-.5.1z"/>
  </g>
</svg>
